<?xml version="1.0" standalone="no"?>
<!DOCTYPE svg PUBLIC "-//W3C//DTD SVG 20010904//EN"
 "http://www.w3.org/TR/2001/REC-SVG-20010904/DTD/svg10.dtd">
<svg version="1.0" xmlns="http://www.w3.org/2000/svg"
 width="192.000000pt" height="192.000000pt" viewBox="0 0 192.000000 192.000000"
 preserveAspectRatio="xMidYMid meet">
<metadata>
Created by potrace 1.14, written by Peter Selinger 2001-2017
</metadata>
<g transform="translate(0.000000,192.000000) scale(0.100000,-0.100000)"
fill="#000000" stroke="none">
<path d="M837 1615 c-26 -7 -50 -13 -52 -13 -3 -1 -17 -5 -33 -8 -71 -17 -188
-90 -262 -164 -121 -122 -187 -271 -195 -441 -17 -390 301 -708 694 -694 47 2
97 7 111 13 14 5 28 10 33 11 132 17 341 177 409 313 62 124 82 202 82 328 0
159 -49 301 -148 423 -85 103 -235 198 -362 228 -70 16 -221 19 -277 4z"/>
</g>
</svg>
